<svg width="28" height="28" viewBox="0 0 28 28" fill="none" xmlns="http://www.w3.org/2000/svg">
<path d="M11.1776 0.289898C11.672 0.18738 12.1663 0.114479 12.6539 0.0666377C13.155 0.0187962 13.6517 -0.00398546 14.1415 0.000570866C14.4171 0.00284903 14.6382 0.228387 14.6358 0.504045C14.6336 0.715912 14.4992 0.895893 14.3124 0.966515C12.2279 1.78665 10.5603 3.3153 9.53735 5.20846C8.5304 7.06975 8.14765 9.28185 8.60556 11.5144L8.6078 11.5303C9.12954 14.05 10.6195 16.1209 12.6129 17.4331C14.6039 18.7453 17.094 19.2967 19.6137 18.7818L19.6296 18.7795C21.443 18.4036 23.0218 17.5288 24.2543 16.3236C25.53 15.0775 26.4322 13.4805 26.8355 11.7308C26.897 11.462 27.1658 11.2957 27.4323 11.3573C27.635 11.4051 27.7809 11.5691 27.8127 11.7628C28.4142 15.4534 27.5052 19.0688 25.5209 21.9484C23.5457 24.8144 20.5021 26.9535 16.8229 27.7099C13.0366 28.489 9.29359 27.6598 6.30233 25.6914C3.30881 23.7163 1.06938 20.6066 0.290247 16.8202C-0.470661 13.1228 0.301638 9.46633 2.17202 6.51157C4.0515 3.54768 7.03586 1.28546 10.6878 0.39925C10.7585 0.381025 10.8404 0.362799 10.9293 0.342295H10.9316L11.1776 0.289898Z" fill="#6F7A90"/>
</svg>
