<svg width="20" height="20" viewBox="0 0 20 20" fill="none" xmlns="http://www.w3.org/2000/svg">
<path d="M7.98516 0.2071C8.33835 0.133862 8.69148 0.0817826 9.03981 0.0476053C9.39779 0.0134278 9.75263 -0.00284717 10.1025 0.00040782C10.2994 0.00203532 10.4574 0.163157 10.4557 0.360084C10.4541 0.51144 10.3581 0.640016 10.2246 0.690468C8.73548 1.27636 7.54417 2.36841 6.81338 3.72087C6.09403 5.05055 5.8206 6.63085 6.14772 8.22576L6.14932 8.23712C6.52205 10.0372 7.58646 11.5166 9.01052 12.454C10.4329 13.3914 12.2118 13.7854 14.0118 13.4175L14.0232 13.4159C15.3187 13.1473 16.4465 12.5224 17.327 11.6614C18.2384 10.7712 18.8829 9.63033 19.171 8.38036C19.2149 8.18833 19.407 8.06953 19.5973 8.11353C19.7422 8.14768 19.8464 8.26484 19.8691 8.40322C20.2988 11.0397 19.6494 13.6225 18.2319 15.6797C16.8208 17.7271 14.6465 19.2553 12.0181 19.7957C9.31321 20.3522 6.63924 19.7599 4.50232 18.3537C2.36378 16.9427 0.763954 14.7211 0.207349 12.0162C-0.336235 9.37479 0.215487 6.76265 1.55167 4.6518C2.89435 2.53442 5.02634 0.918319 7.63525 0.28522C7.68576 0.2722 7.74427 0.25918 7.80778 0.244532H7.80942L7.98516 0.2071Z" fill="#6F7A90"/>
</svg>
