<svg width="17" height="17" viewBox="0 0 17 17" fill="none" xmlns="http://www.w3.org/2000/svg">
<path d="M7.13633 1C5.92268 1 4.73628 1.35989 3.72717 2.03416C2.71806 2.70843 1.93155 3.66679 1.4671 4.78806C1.00266 5.90932 0.881139 7.14314 1.11791 8.33347C1.35468 9.5238 1.93911 10.6172 2.79729 11.4754C3.65547 12.3335 4.74886 12.918 5.93919 13.1547C7.12952 13.3915 8.36333 13.27 9.4846 12.8056C10.6059 12.3411 11.5642 11.5546 12.2385 10.5455C12.9128 9.53638 13.2727 8.34998 13.2727 7.13633C13.2725 5.5089 12.626 3.94817 11.4753 2.7974C10.3245 1.64664 8.76375 1.0001 7.13633 1Z" stroke="#3943B7" stroke-width="2" stroke-miterlimit="10"/>
<path d="M11.7144 11.7144L15.9999 15.9999" stroke="#3943B7" stroke-width="2" stroke-miterlimit="10" stroke-linecap="round"/>
</svg>
