<svg width="28" height="28" viewBox="0 0 28 28" fill="none" xmlns="http://www.w3.org/2000/svg">
<path d="M13.9844 0.000121853C13.7198 0.00425806 13.4676 0.113207 13.2833 0.303058C13.0989 0.492909 12.9974 0.74815 13.001 1.01276V4.00971C12.9991 4.14209 13.0236 4.27352 13.073 4.39636C13.1223 4.51921 13.1956 4.63102 13.2886 4.72529C13.3815 4.81956 13.4923 4.89442 13.6144 4.94552C13.7365 4.99661 13.8676 5.02293 14 5.02293C14.1324 5.02293 14.2635 4.99661 14.3856 4.94552C14.5077 4.89442 14.6185 4.81956 14.7114 4.72529C14.8044 4.63102 14.8777 4.51921 14.927 4.39636C14.9764 4.27352 15.0009 4.14209 14.999 4.00971V1.01276C15.0008 0.87911 14.9758 0.746448 14.9254 0.622634C14.8751 0.49882 14.8004 0.38637 14.7058 0.291945C14.6112 0.19752 14.4986 0.123039 14.3747 0.0729129C14.2508 0.0227867 14.118 -0.00196563 13.9844 0.000121853ZM4.80623 3.80875C4.60766 3.80919 4.41373 3.86878 4.24919 3.97993C4.08465 4.09108 3.95696 4.24874 3.88242 4.43279C3.80788 4.61683 3.78987 4.81891 3.8307 5.01323C3.87152 5.20756 3.96932 5.38531 4.11162 5.5238L6.23056 7.64274C6.32261 7.73861 6.43287 7.81515 6.55487 7.86788C6.67688 7.92061 6.80818 7.94847 6.94108 7.94982C7.07398 7.95117 7.20582 7.92599 7.32887 7.87575C7.45192 7.82552 7.56371 7.75123 7.6577 7.65725C7.75168 7.56327 7.82596 7.45148 7.8762 7.32843C7.92644 7.20537 7.95162 7.07354 7.95027 6.94063C7.94892 6.80773 7.92106 6.67643 7.86833 6.55442C7.8156 6.43242 7.73906 6.32216 7.64319 6.23011L5.52425 4.11117C5.43092 4.01524 5.31928 3.93904 5.19593 3.88709C5.07259 3.83513 4.94007 3.80849 4.80623 3.80875ZM23.1626 3.80875C22.903 3.81648 22.6567 3.92495 22.4758 4.11117L20.3568 6.23011C20.2609 6.32216 20.1844 6.43242 20.1317 6.55442C20.0789 6.67643 20.0511 6.80773 20.0497 6.94063C20.0484 7.07353 20.0736 7.20537 20.1238 7.32842C20.174 7.45147 20.2483 7.56326 20.3423 7.65724C20.4363 7.75122 20.5481 7.82551 20.6711 7.87575C20.7942 7.92599 20.926 7.95117 21.0589 7.94982C21.1918 7.94847 21.3231 7.92061 21.4451 7.86788C21.5671 7.81515 21.6774 7.73861 21.7694 7.64274L23.8884 5.5238C24.0327 5.38348 24.1313 5.20282 24.1713 5.0055C24.2112 4.80818 24.1905 4.60341 24.1121 4.41801C24.0336 4.23261 23.901 4.07524 23.7315 3.96653C23.5621 3.85781 23.3638 3.80281 23.1626 3.80875ZM14 7.00667C12.1454 7.00667 10.3667 7.74341 9.05528 9.05484C7.74386 10.3663 7.00711 12.1449 7.00711 13.9996C7.00711 15.8542 7.74386 17.6328 9.05528 18.9443C10.3667 20.2557 12.1454 20.9924 14 20.9924C15.8546 20.9924 17.6333 20.2557 18.9447 18.9443C20.2561 17.6328 20.9929 15.8542 20.9929 13.9996C20.9929 12.1449 20.2561 10.3663 18.9447 9.05484C17.6333 7.74341 15.8546 7.00667 14 7.00667ZM1.01321 13.0006C0.880834 12.9987 0.749405 13.0232 0.626562 13.0725C0.503719 13.1219 0.391911 13.1952 0.297638 13.2881C0.203364 13.3811 0.128504 13.4918 0.0774082 13.614C0.0263125 13.7361 0 13.8672 0 13.9996C0 14.1319 0.0263125 14.263 0.0774082 14.3851C0.128504 14.5073 0.203364 14.618 0.297638 14.711C0.391911 14.8039 0.503719 14.8772 0.626562 14.9266C0.749405 14.976 0.880834 15.0004 1.01321 14.9985H4.01016C4.14254 15.0004 4.27397 14.976 4.39681 14.9266C4.51966 14.8772 4.63146 14.8039 4.72574 14.711C4.82001 14.618 4.89487 14.5073 4.94597 14.3851C4.99706 14.263 5.02338 14.1319 5.02338 13.9996C5.02338 13.8672 4.99706 13.7361 4.94597 13.614C4.89487 13.4918 4.82001 13.3811 4.72574 13.2881C4.63146 13.1952 4.51966 13.1219 4.39681 13.0725C4.27397 13.0232 4.14254 12.9987 4.01016 13.0006H1.01321ZM23.9898 13.0006C23.8575 12.9987 23.726 13.0232 23.6032 13.0725C23.4803 13.1219 23.3685 13.1952 23.2743 13.2881C23.18 13.3811 23.1051 13.4918 23.054 13.614C23.0029 13.7361 22.9766 13.8672 22.9766 13.9996C22.9766 14.1319 23.0029 14.263 23.054 14.3851C23.1051 14.5073 23.18 14.618 23.2743 14.711C23.3685 14.8039 23.4803 14.8772 23.6032 14.9266C23.726 14.976 23.8575 15.0004 23.9898 14.9985H26.9868C27.1192 15.0004 27.2506 14.976 27.3734 14.9266C27.4963 14.8772 27.6081 14.8039 27.7024 14.711C27.7966 14.618 27.8715 14.5073 27.9226 14.3851C27.9737 14.263 28 14.1319 28 13.9996C28 13.8672 27.9737 13.7361 27.9226 13.614C27.8715 13.4918 27.7966 13.3811 27.7024 13.2881C27.6081 13.1952 27.4963 13.1219 27.3734 13.0725C27.2506 13.0232 27.1192 12.9987 26.9868 13.0006H23.9898ZM6.91736 20.0539C6.65783 20.0617 6.4115 20.1701 6.23056 20.3564L4.11162 22.4753C4.01575 22.5674 3.93921 22.6776 3.88648 22.7996C3.83375 22.9216 3.80589 23.0529 3.80454 23.1858C3.80319 23.3187 3.82837 23.4506 3.87861 23.5736C3.92885 23.6967 4.00313 23.8085 4.09712 23.9024C4.1911 23.9964 4.30289 24.0707 4.42594 24.1209C4.54899 24.1712 4.68083 24.1964 4.81373 24.195C4.94663 24.1937 5.07793 24.1658 5.19994 24.1131C5.32194 24.0603 5.4322 23.9838 5.52425 23.8879L7.64319 21.769C7.78754 21.6287 7.88614 21.448 7.92606 21.2507C7.96598 21.0534 7.94536 20.8486 7.86689 20.6632C7.78843 20.4778 7.65579 20.3204 7.48636 20.2117C7.31692 20.103 7.11859 20.048 6.91736 20.0539ZM21.0534 20.0539C20.8546 20.054 20.6604 20.1133 20.4956 20.2243C20.3308 20.3353 20.2028 20.493 20.128 20.6771C20.0532 20.8612 20.035 21.0634 20.0758 21.2579C20.1166 21.4525 20.2144 21.6304 20.3568 21.769L22.4758 23.8879C22.5678 23.9838 22.6781 24.0603 22.8001 24.1131C22.9221 24.1658 23.0534 24.1937 23.1863 24.195C23.3192 24.1964 23.451 24.1712 23.5741 24.1209C23.6971 24.0707 23.8089 23.9964 23.9029 23.9024C23.9969 23.8084 24.0711 23.6967 24.1214 23.5736C24.1716 23.4506 24.1968 23.3187 24.1955 23.1858C24.1941 23.0529 24.1662 22.9216 24.1135 22.7996C24.0608 22.6776 23.9842 22.5674 23.8884 22.4753L21.7694 20.3564C21.6763 20.2607 21.565 20.1846 21.442 20.1327C21.319 20.0807 21.1869 20.0539 21.0534 20.0539ZM13.9844 22.9767C13.7198 22.9809 13.4676 23.0898 13.2833 23.2797C13.0989 23.4695 12.9974 23.7248 13.001 23.9894V26.9863C12.9991 27.1187 13.0236 27.2501 13.073 27.373C13.1223 27.4958 13.1956 27.6076 13.2886 27.7019C13.3815 27.7962 13.4923 27.871 13.6144 27.9221C13.7365 27.9732 13.8676 27.9996 14 27.9996C14.1324 27.9996 14.2635 27.9732 14.3856 27.9221C14.5077 27.871 14.6185 27.7962 14.7114 27.7019C14.8044 27.6076 14.8777 27.4958 14.927 27.373C14.9764 27.2501 15.0009 27.1187 14.999 26.9863V23.9894C15.0008 23.8557 14.9758 23.7231 14.9254 23.5993C14.8751 23.4754 14.8004 23.363 14.7058 23.2686C14.6112 23.1741 14.4986 23.0997 14.3747 23.0495C14.2508 22.9994 14.118 22.9747 13.9844 22.9767Z" fill="white"/>
</svg>
