<svg width="23" height="23" viewBox="0 0 23 23" fill="none" xmlns="http://www.w3.org/2000/svg">
<path d="M11.4872 0.000100093C11.2698 0.00349769 11.0627 0.0929915 10.9113 0.248941C10.7598 0.40489 10.6764 0.614552 10.6794 0.83191V3.29369C10.6778 3.40243 10.698 3.51039 10.7385 3.6113C10.779 3.71221 10.8392 3.80405 10.9156 3.88149C10.9919 3.95892 11.083 4.02042 11.1833 4.06239C11.2836 4.10436 11.3912 4.12598 11.5 4.12598C11.6088 4.12598 11.7164 4.10436 11.8167 4.06239C11.917 4.02042 12.0081 3.95892 12.0844 3.88149C12.1608 3.80405 12.221 3.71221 12.2615 3.6113C12.302 3.51039 12.3222 3.40243 12.3206 3.29369V0.83191C12.3221 0.722126 12.3016 0.613154 12.2602 0.511449C12.2188 0.409745 12.1575 0.317375 12.0798 0.239812C12.0021 0.162249 11.9096 0.101068 11.8078 0.0598927C11.706 0.0187176 11.5969 -0.00161462 11.4872 0.000100093ZM3.94797 3.12862C3.78486 3.12898 3.62556 3.17793 3.49041 3.26923C3.35525 3.36053 3.25036 3.49004 3.18913 3.64122C3.1279 3.7924 3.11311 3.95839 3.14665 4.11801C3.18018 4.27764 3.26051 4.42365 3.3774 4.53741L5.11796 6.27797C5.19357 6.35672 5.28414 6.41959 5.38436 6.4629C5.48458 6.50622 5.59243 6.5291 5.7016 6.53021C5.81077 6.53132 5.91907 6.51063 6.02014 6.46937C6.12122 6.42811 6.21305 6.36708 6.29025 6.28988C6.36745 6.21269 6.42847 6.12086 6.46974 6.01978C6.511 5.9187 6.53169 5.81041 6.53058 5.70123C6.52947 5.59206 6.50659 5.48421 6.46327 5.38399C6.41996 5.28377 6.35709 5.1932 6.27833 5.11759L4.53778 3.37703C4.46111 3.29823 4.36941 3.23564 4.26809 3.19297C4.16677 3.15029 4.05791 3.1284 3.94797 3.12862ZM19.0264 3.12862C18.8132 3.13497 18.6109 3.22407 18.4623 3.37703L16.7217 5.11759C16.6429 5.1932 16.58 5.28377 16.5368 5.38399C16.4934 5.48421 16.4705 5.59206 16.4694 5.70123C16.4683 5.8104 16.489 5.9187 16.5303 6.01977C16.5715 6.12085 16.6325 6.21268 16.7097 6.28988C16.787 6.36707 16.8788 6.4281 16.9798 6.46937C17.081 6.51063 17.1892 6.53132 17.2984 6.53021C17.4076 6.5291 17.5154 6.50622 17.6156 6.4629C17.7158 6.41959 17.8064 6.35672 17.882 6.27797L19.6226 4.53741C19.7411 4.42214 19.8221 4.27375 19.855 4.11166C19.8878 3.94958 19.8708 3.78137 19.8064 3.62908C19.7419 3.47679 19.633 3.34752 19.4937 3.25822C19.3546 3.16892 19.1917 3.12374 19.0264 3.12862ZM11.5 5.75548C9.97658 5.75548 8.5155 6.36066 7.43827 7.4379C6.36103 8.51518 5.75584 9.97617 5.75584 11.4997C5.75584 13.0231 6.36103 14.4841 7.43827 15.5614C8.5155 16.6386 9.97658 17.2438 11.5 17.2438C13.0234 17.2438 14.4845 16.6386 15.5617 15.5614C16.6389 14.4841 17.2442 13.0231 17.2442 11.4997C17.2442 9.97617 16.6389 8.51518 15.5617 7.4379C14.4845 6.36066 13.0234 5.75548 11.5 5.75548ZM0.83228 10.6791C0.723542 10.6775 0.615583 10.6976 0.514676 10.7381C0.413769 10.7787 0.321927 10.8389 0.244488 10.9152C0.167049 10.9916 0.105557 11.0826 0.0635853 11.1829C0.0216138 11.2832 0 11.3909 0 11.4997C0 11.6083 0.0216138 11.716 0.0635853 11.8163C0.105557 11.9167 0.167049 12.0076 0.244488 12.084C0.321927 12.1603 0.413769 12.2206 0.514676 12.2611C0.615583 12.3017 0.723542 12.3218 0.83228 12.3202H3.29406C3.4028 12.3218 3.51076 12.3017 3.61167 12.2611C3.71258 12.2206 3.80441 12.1603 3.88186 12.084C3.95929 12.0076 4.02079 11.9167 4.06276 11.8163C4.10473 11.716 4.12635 11.6083 4.12635 11.4997C4.12635 11.3909 4.10473 11.2832 4.06276 11.1829C4.02079 11.0826 3.95929 10.9916 3.88186 10.9152C3.80441 10.8389 3.71258 10.7787 3.61167 10.7381C3.51076 10.6976 3.4028 10.6775 3.29406 10.6791H0.83228ZM19.7059 10.6791C19.5972 10.6775 19.4892 10.6976 19.3883 10.7381C19.2874 10.7787 19.1956 10.8389 19.1182 10.9152C19.0407 10.9916 18.9792 11.0826 18.9372 11.1829C18.8952 11.2832 18.8736 11.3909 18.8736 11.4997C18.8736 11.6083 18.8952 11.716 18.9372 11.8163C18.9792 11.9167 19.0407 12.0076 19.1182 12.084C19.1956 12.1603 19.2874 12.2206 19.3883 12.2611C19.4892 12.3017 19.5972 12.3218 19.7059 12.3202H22.1677C22.2765 12.3218 22.3844 12.3017 22.4853 12.2611C22.5862 12.2206 22.6781 12.1603 22.7555 12.084C22.8329 12.0076 22.8944 11.9167 22.9364 11.8163C22.9784 11.716 23 11.6083 23 11.4997C23 11.3909 22.9784 11.2832 22.9364 11.1829C22.8944 11.0826 22.8329 10.9916 22.7555 10.9152C22.6781 10.8389 22.5862 10.7787 22.4853 10.7381C22.3844 10.6976 22.2765 10.6775 22.1677 10.6791H19.7059ZM5.68212 16.4728C5.46893 16.4793 5.26659 16.5683 5.11796 16.7213L3.3774 18.4619C3.29865 18.5375 3.23578 18.628 3.19247 18.7282C3.14915 18.8285 3.12627 18.9363 3.12516 19.0455C3.12405 19.1546 3.14473 19.263 3.186 19.364C3.22727 19.4651 3.28829 19.557 3.36549 19.6341C3.44269 19.7113 3.53452 19.7724 3.63559 19.8136C3.73667 19.8549 3.84497 19.8756 3.95414 19.8745C4.0633 19.8734 4.17116 19.8505 4.27138 19.8072C4.37159 19.7638 4.46216 19.701 4.53778 19.6222L6.27833 17.8817C6.39691 17.7664 6.4779 17.618 6.51069 17.4559C6.54348 17.2939 6.52655 17.1256 6.46209 16.9733C6.39764 16.8211 6.28868 16.6918 6.14951 16.6025C6.01033 16.5132 5.84741 16.468 5.68212 16.4728ZM17.2939 16.4728C17.1306 16.4729 16.971 16.5216 16.8357 16.6128C16.7003 16.704 16.5952 16.8335 16.5337 16.9848C16.4723 17.136 16.4573 17.3021 16.4908 17.4618C16.5244 17.6217 16.6047 17.7678 16.7217 17.8817L18.4623 19.6222C18.5378 19.701 18.6284 19.7638 18.7287 19.8072C18.8289 19.8505 18.9367 19.8734 19.0459 19.8745C19.1551 19.8756 19.2633 19.8549 19.3644 19.8136C19.4655 19.7724 19.5573 19.7113 19.6345 19.6341C19.7117 19.5569 19.7727 19.4651 19.814 19.364C19.8552 19.263 19.8759 19.1546 19.8749 19.0455C19.8737 18.9363 19.8508 18.8285 19.8075 18.7282C19.7642 18.628 19.7013 18.5375 19.6226 18.4619L17.882 16.7213C17.8055 16.6427 17.7141 16.5802 17.6131 16.5376C17.512 16.4949 17.4035 16.4728 17.2939 16.4728ZM11.4872 18.8737C11.2698 18.8772 11.0627 18.9666 10.9113 19.1226C10.7598 19.2785 10.6764 19.4882 10.6794 19.7056V22.1673C10.6778 22.2761 10.698 22.384 10.7385 22.485C10.779 22.5858 10.8392 22.6777 10.9156 22.7551C10.9919 22.8326 11.083 22.894 11.1833 22.936C11.2836 22.978 11.3912 22.9997 11.5 22.9997C11.6088 22.9997 11.7164 22.978 11.8167 22.936C11.917 22.894 12.0081 22.8326 12.0844 22.7551C12.1608 22.6777 12.221 22.5858 12.2615 22.485C12.302 22.384 12.3222 22.2761 12.3206 22.1673V19.7056C12.3221 19.5958 12.3016 19.4868 12.2602 19.3851C12.2188 19.2834 12.1575 19.191 12.0798 19.1135C12.0021 19.0359 11.9096 18.9748 11.8078 18.9335C11.706 18.8924 11.5969 18.8721 11.4872 18.8737Z" fill="white"/>
</svg>
